<svg id="Layer_1" data-name="Layer 1" xmlns="http://www.w3.org/2000/svg" viewBox="0 0 99.95 18.31"><defs><style>.cls-1{fill:#1d1d1b;}</style></defs><path class="cls-1" d="M14.83,7.59H5A5.29,5.29,0,0,1,9.9,4.23a5.18,5.18,0,0,1,3.19,1.08l-.64,1.18h6.93c-1.29-2.2-2.17-3.95-3.45-6.12a11.25,11.25,0,0,0-.57,1,.63.63,0,0,1-.49.44A9.07,9.07,0,0,0,9.9.37,9.17,9.17,0,0,0,1,7.59a9.5,9.5,0,0,0-.2,1.93A9.36,9.36,0,0,0,1,11.45H14.83A5.29,5.29,0,0,1,9.9,14.82a5.23,5.23,0,0,1-3-.94l.69-1.27h-7c1.29,2.21,2.26,3.85,3.53,6,.22-.4.43-.7.58-1A.88.88,0,0,1,5,17.25a9,9,0,0,0,4.9,1.43,9.16,9.16,0,0,0,9-7.23,9.35,9.35,0,0,0,.21-1.93,9.51,9.51,0,0,0-.21-1.93Z" transform="translate(-0.64 -0.37)"/><path class="cls-1" d="M34.07,12.08a3.69,3.69,0,0,1-.6,2.07,3.94,3.94,0,0,1-1.73,1.44,6.46,6.46,0,0,1-2.71.52,6.1,6.1,0,0,1-3.1-.71A4.17,4.17,0,0,1,24.52,14,3.13,3.13,0,0,1,24,12.38a1.13,1.13,0,0,1,.32-.8,1.1,1.1,0,0,1,.83-.34,1,1,0,0,1,.69.26,2,2,0,0,1,.48.77,5.35,5.35,0,0,0,.52,1,2.22,2.22,0,0,0,.8.67,3,3,0,0,0,1.34.26,3,3,0,0,0,1.85-.53,1.61,1.61,0,0,0,.72-1.33,1.42,1.42,0,0,0-.39-1,2.44,2.44,0,0,0-1-.6c-.41-.14-.95-.28-1.63-.44a11.17,11.17,0,0,1-2.29-.75,3.58,3.58,0,0,1-1.47-1.17,3,3,0,0,1-.54-1.84,3.2,3.2,0,0,1,.57-1.86,3.63,3.63,0,0,1,1.66-1.25A6.78,6.78,0,0,1,29,3a6.34,6.34,0,0,1,2,.29A4.46,4.46,0,0,1,32.43,4a3.38,3.38,0,0,1,.82,1,2.28,2.28,0,0,1,.26,1,1.23,1.23,0,0,1-.32.83,1,1,0,0,1-.81.37,1,1,0,0,1-.67-.22,2.83,2.83,0,0,1-.5-.73,3.41,3.41,0,0,0-.83-1.12,2.49,2.49,0,0,0-1.56-.4,2.74,2.74,0,0,0-1.61.44,1.28,1.28,0,0,0-.61,1,1.08,1.08,0,0,0,.21.66,1.8,1.8,0,0,0,.57.47,3.68,3.68,0,0,0,.74.32l1.23.32c.71.17,1.36.36,1.94.56a6.19,6.19,0,0,1,1.48.73,3,3,0,0,1,.95,1.1A3.46,3.46,0,0,1,34.07,12.08Z" transform="translate(-0.64 -0.37)"/><path class="cls-1" d="M38.84,4.54V8.18h5.55V4.54a1.67,1.67,0,0,1,.35-1.17A1.17,1.17,0,0,1,45.66,3a1.23,1.23,0,0,1,.94.39A1.67,1.67,0,0,1,47,4.54v10a1.64,1.64,0,0,1-.37,1.18,1.21,1.21,0,0,1-.93.39,1.16,1.16,0,0,1-.93-.4,1.72,1.72,0,0,1-.34-1.17V10.27H38.84v4.27a1.68,1.68,0,0,1-.37,1.18,1.21,1.21,0,0,1-.93.39,1.16,1.16,0,0,1-.93-.4,1.72,1.72,0,0,1-.35-1.17v-10a1.72,1.72,0,0,1,.35-1.17A1.15,1.15,0,0,1,37.54,3a1.23,1.23,0,0,1,.94.39A1.67,1.67,0,0,1,38.84,4.54Z" transform="translate(-0.64 -0.37)"/><path class="cls-1" d="M57.84,14.46l-.61-1.6H52.07l-.6,1.63a6.06,6.06,0,0,1-.61,1.29,1,1,0,0,1-.82.33,1.21,1.21,0,0,1-.86-.36,1.06,1.06,0,0,1-.37-.8,1.79,1.79,0,0,1,.09-.54c.05-.18.15-.44.28-.77L52.43,5.4l.33-.85a4.26,4.26,0,0,1,.42-.83,1.56,1.56,0,0,1,.58-.53A1.71,1.71,0,0,1,54.64,3a1.76,1.76,0,0,1,.9.21,1.71,1.71,0,0,1,.58.52,3.52,3.52,0,0,1,.37.69l.39,1,3.31,8.19a4.18,4.18,0,0,1,.39,1.36,1.12,1.12,0,0,1-.36.81,1.22,1.22,0,0,1-.89.37,1.17,1.17,0,0,1-.52-.11.94.94,0,0,1-.36-.29,2.67,2.67,0,0,1-.32-.58Zm-5.09-3.53h3.79L54.63,5.69Z" transform="translate(-0.64 -0.37)"/><path class="cls-1" d="M66.76,14l-2-8.09v8.76a1.66,1.66,0,0,1-.32,1.1,1.12,1.12,0,0,1-.86.36,1.1,1.1,0,0,1-.85-.36,1.57,1.57,0,0,1-.33-1.1v-10a1.25,1.25,0,0,1,.43-1.12A2.11,2.11,0,0,1,64,3.2h.8a2.94,2.94,0,0,1,1,.13.85.85,0,0,1,.48.47,8.27,8.27,0,0,1,.36,1.1l1.84,7L70.32,4.9a7,7,0,0,1,.36-1.1.85.85,0,0,1,.48-.47,2.94,2.94,0,0,1,1-.13H73a2.11,2.11,0,0,1,1.17.29,1.25,1.25,0,0,1,.43,1.12v10a1.66,1.66,0,0,1-.32,1.1,1.12,1.12,0,0,1-.87.36,1.06,1.06,0,0,1-.84-.36,1.61,1.61,0,0,1-.33-1.1V5.89L70.2,14c-.13.52-.24.91-.32,1.15a1.67,1.67,0,0,1-.47.68,1.33,1.33,0,0,1-.93.3,1.41,1.41,0,0,1-.76-.2,1.44,1.44,0,0,1-.49-.49,3.61,3.61,0,0,1-.27-.67C66.89,14.5,66.83,14.24,66.76,14Z" transform="translate(-0.64 -0.37)"/><path class="cls-1" d="M85.6,5.18H79.81V8.3h5.33a1.28,1.28,0,0,1,.88.26.89.89,0,0,1,.29.7A1,1,0,0,1,86,10a1.26,1.26,0,0,1-.89.27H79.81v3.61h6a1.32,1.32,0,0,1,.92.28,1,1,0,0,1,.3.75,1,1,0,0,1-.3.73,1.32,1.32,0,0,1-.92.28h-7a1.64,1.64,0,0,1-1.21-.37,1.64,1.64,0,0,1-.37-1.2V4.78a2.36,2.36,0,0,1,.16-.91,1.07,1.07,0,0,1,.52-.51,2.1,2.1,0,0,1,.9-.16H85.6a1.35,1.35,0,0,1,.92.27.94.94,0,0,1,.3.72.92.92,0,0,1-.3.72A1.35,1.35,0,0,1,85.6,5.18Z" transform="translate(-0.64 -0.37)"/><path class="cls-1" d="M91.59,4.54v9.24H96.8a1.37,1.37,0,0,1,1,.3,1,1,0,0,1,.34.76,1,1,0,0,1-.33.76,1.38,1.38,0,0,1-1,.29H90.59a1.65,1.65,0,0,1-1.21-.37,1.69,1.69,0,0,1-.37-1.2V4.54a1.67,1.67,0,0,1,.36-1.17A1.17,1.17,0,0,1,90.29,3a1.23,1.23,0,0,1,.94.39A1.67,1.67,0,0,1,91.59,4.54Z" transform="translate(-0.64 -0.37)"/><path class="cls-1" d="M94.44,5.28a.2.2,0,0,1-.15-.06.19.19,0,0,1-.06-.15.21.21,0,0,1,.21-.21.2.2,0,0,1,.14.06.18.18,0,0,1,.07.15.17.17,0,0,1-.07.15A.2.2,0,0,1,94.44,5.28Z" transform="translate(-0.64 -0.37)"/><path class="cls-1" d="M96.44,3.53h-.93V4h.86a.2.2,0,0,1,.14,0,.15.15,0,0,1,0,.11.16.16,0,0,1,0,.12.2.2,0,0,1-.14,0h-.86v.58h1a.21.21,0,0,1,.15,0,.17.17,0,0,1,0,.24.21.21,0,0,1-.15,0H95.35a.27.27,0,0,1-.19-.06A.25.25,0,0,1,95.1,5V3.47a.33.33,0,0,1,0-.15.16.16,0,0,1,.08-.08.32.32,0,0,1,.14,0h1.09a.23.23,0,0,1,.15,0,.14.14,0,0,1,0,.11.16.16,0,0,1,0,.12A.22.22,0,0,1,96.44,3.53Z" transform="translate(-0.64 -0.37)"/><path class="cls-1" d="M97.55,4.38H97.4V5a.33.33,0,0,1-.05.19.2.2,0,0,1-.15.06.16.16,0,0,1-.15-.07A.24.24,0,0,1,97,5V3.47a.28.28,0,0,1,.06-.2.27.27,0,0,1,.19-.06h.67l.24,0a.58.58,0,0,1,.18,0,.66.66,0,0,1,.17.12,1,1,0,0,1,.11.17.78.78,0,0,1,0,.21.53.53,0,0,1-.13.36.8.8,0,0,1-.39.2.78.78,0,0,1,.21.17c.06.07.12.16.18.24s.09.16.12.23a.43.43,0,0,1,0,.14.19.19,0,0,1,0,.08.23.23,0,0,1-.07.07l-.11,0a.2.2,0,0,1-.11,0,.34.34,0,0,1-.08-.09,1,1,0,0,1-.1-.14L98,4.74a1.77,1.77,0,0,0-.16-.23.45.45,0,0,0-.14-.11Zm.23-.86H97.4v.56h.37a.9.9,0,0,0,.25,0A.27.27,0,0,0,98.18,4a.29.29,0,0,0,0-.17.33.33,0,0,0,0-.15.29.29,0,0,0-.12-.1A.93.93,0,0,0,97.78,3.52Z" transform="translate(-0.64 -0.37)"/><path class="cls-1" d="M99.82,4.45h-.37V5a.24.24,0,0,1-.06.18.18.18,0,0,1-.15.07.2.2,0,0,1-.15-.06A.29.29,0,0,1,99,5V3.47a.28.28,0,0,1,.07-.2.25.25,0,0,1,.19-.06h.53a1.49,1.49,0,0,1,.36,0,.51.51,0,0,1,.22.11.72.72,0,0,1,.14.2.75.75,0,0,1,0,.26.56.56,0,0,1-.19.47A.86.86,0,0,1,99.82,4.45Zm-.1-.93h-.27v.62h.27a.9.9,0,0,0,.25,0,.29.29,0,0,0,.2-.28.33.33,0,0,0-.08-.22A.53.53,0,0,0,99.72,3.52Z" transform="translate(-0.64 -0.37)"/></svg>